<svg width="61" height="53" viewBox="0 0 61 53" fill="none" xmlns="http://www.w3.org/2000/svg">
<path d="M60.9211 2.6C50.5211 7.59999 45.1211 19 44.3211 29.4C45.9211 29 47.5211 28.6 49.3211 28.6C55.7211 28.6 60.5211 33.4 60.5211 39.8C60.5211 47.4 55.7211 53 48.1211 53C39.7211 53 33.7211 47.8 33.7211 36.2C33.7211 20 48.1211 4.79999 59.9211 0.599988L60.9211 2.6ZM27.3211 2.6C16.9211 7.59999 11.5211 19 10.7211 29.4C12.3211 29 13.9211 28.6 15.7211 28.6C22.1211 28.6 26.9211 33.4 26.9211 39.8C26.9211 47.4 22.1211 53 14.5211 53C6.12109 53 0.121094 47.8 0.121094 36.2C0.121094 20 14.5211 4.79999 26.3211 0.599988L27.3211 2.6Z" fill="#CBB3A0"/>
</svg>
